# xmcd CD database file
#
# Track frame offsets:
#	150
#	15856
#	33984
#	49281
#	66131
#	83017
#	98176
#	113655
#	133542
#	150425
#	165859
#
# Disc length: 2405 seconds
#
# Revision: 1
# Processed by: cddbd v1.5.2PL0 Copyright (c) Steve Scherf et al.
# Submitted via: CDex 1.51
#
DISCID=7309630b
DTITLE=Voz A Voz - Unreachables
DYEAR=2007
DGENRE=Latin
TTITLE0=Perdóname
TTITLE1=Que Pagues Igual
TTITLE2=Cien Mil Razones
TTITLE3=Otra Vez
TTITLE4=Quiéreme
TTITLE5=No Hay Nada
TTITLE6=He Tratado
TTITLE7=Te Prohibieron
TTITLE8=Mamá
TTITLE9=Magdalena
TTITLE10=Perdóname (Pop Version)
EXTD=YEAR: 2007
EXTT0=
EXTT1=
EXTT2=
EXTT3=
EXTT4=
EXTT5=
EXTT6=
EXTT7=
EXTT8=
EXTT9=
EXTT10=
PLAYORDER=
